<svg xmlns="http://www.w3.org/2000/svg" xmlns:xlink="http://www.w3.org/1999/xlink" width="512" height="512" viewBox="0 0 512 512" fill="none">
    <path     fill="#82ABCA"  d="M7.5 411C7.5 422.046 16.4543 431 27.5 431L484.5 431C495.546 431 504.5 422.046 504.5 411L504.5 151C504.5 139.954 495.546 131 484.5 131L27.5 131C16.4543 131 7.5 139.954 7.5 151L7.5 411Z">
    </path>
    <path d="M37.5 151C37.5 139.962 46.4617 131 57.5 131L27.5 131C16.4617 131 7.5 139.962 7.5 151L7.5 411C7.5 422.038 16.4617 431 27.5 431L57.5 431C46.4617 431 37.5 422.038 37.5 411L37.5 151Z"   fill="#4A82AE" >
    </path>
    <path d="M512 151L512 411C511.978 426.179 499.679 438.478 484.5 438.5L27.5 438.5C12.3213 438.478 0.0220301 426.179 0 411L0 151C0.0220301 135.821 12.3213 123.522 27.5 123.5L484.5 123.5C499.679 123.522 511.978 135.821 512 151ZM15 411L15 151C15.011 144.101 20.601 138.511 27.5 138.5L484.5 138.5C491.399 138.511 496.989 144.101 497 151L497 411C496.989 417.899 491.399 423.489 484.5 423.5L27.5 423.5C20.601 423.489 15.011 417.899 15 411Z" fill-rule="evenodd"  fill="#000000" >
    </path>
    <path d="M7.5 411C7.5 422.038 16.4617 431 27.5 431L484.5 431C495.538 431 504.5 422.038 504.5 411L504.5 281L7.5 281L7.5 411Z"   fill="#E04955" >
    </path>
    <path d="M37.5 281L7.5 281L7.5 411C7.5 422.038 16.4617 431 27.5 431L484.5 431C495.538 431 504.5 422.038 504.5 411L57.5 411C46.4617 411 37.5 402.038 37.5 391L37.5 281Z"   fill="#C40955" >
    </path>
    <path d="M512 281L512 411C511.978 426.179 499.679 438.478 484.5 438.5L27.5 438.5C12.3213 438.478 0.0220301 426.179 0 411L0 281C0 276.861 3.36064 273.5 7.5 273.5L504.5 273.5C508.639 273.5 512 276.861 512 281ZM27.5 423.5C20.601 423.489 15.011 417.899 15 411L15 288.5L497 288.5L497 411C496.989 417.899 491.399 423.489 484.5 423.5L27.5 423.5Z" fill-rule="evenodd"  fill="#000000" >
    </path>
    <path d="M37.5 101L37.5 131L137.5 131L137.5 101C137.5 89.9617 128.538 81 117.5 81L57.5 81C46.4617 81 37.5 89.9617 37.5 101Z"   fill="#475770" >
    </path>
    <path d="M77.5 96L136.85 96C134.571 87.175 126.614 81.0068 117.5 81L57.5 81C46.4617 81 37.5 89.9617 37.5 101L37.5 131L57.5 131L57.5 116C57.5 104.962 66.4617 96 77.5 96Z"   fill="#323B49" >
    </path>
    <path d="M145 101L145 131C145 135.139 141.639 138.5 137.5 138.5L37.5 138.5C33.3606 138.5 30 135.139 30 131L30 101C30.022 85.8213 42.3213 73.522 57.5 73.5L117.5 73.5C132.681 73.5165 144.983 85.819 145 101ZM130 101L130 123.5L45 123.5L45 101C45.011 94.101 50.601 88.511 57.5 88.5L117.5 88.5C124.401 88.5055 129.994 94.0987 130 101Z" fill-rule="evenodd"  fill="#000000" >
    </path>
    <path d="M167.5 131L227.5 131L227.5 101L167.5 101L167.5 131Z"   fill="#475770" >
    </path>
    <path d="M167.5 131L187.5 131L187.5 101L167.5 101L167.5 131Z"   fill="#323B49" >
    </path>
    <path d="M235 101L235 131C235 135.139 231.639 138.5 227.5 138.5L167.5 138.5C163.361 138.5 160 135.139 160 131L160 101C160 96.8606 163.361 93.5 167.5 93.5L227.5 93.5C231.639 93.5 235 96.8606 235 101ZM220 108.5L220 123.5L175 123.5L175 108.5L220 108.5Z" fill-rule="evenodd"  fill="#000000" >
    </path>
    <path d="M256 181C200.772 181 156 225.772 156 281C156 336.228 200.772 381 256 381C311.228 381 356 336.228 356 281C356 225.772 311.228 181 256 181Z"   fill="#475770" >
    </path>
    <path d="M180.778 309.12C164.168 274.367 168.996 233.163 193.19 203.19C163.401 227.224 149.945 266.154 158.533 303.454C167.121 340.754 196.246 369.879 233.546 378.467C270.846 387.055 309.775 373.599 333.81 343.81C316.04 358.195 293.863 366.03 271 366C232.481 365.999 197.387 343.874 180.778 309.12Z"   fill="#323B49" >
    </path>
    <path d="M256 173.5C315.331 173.5 363.5 221.669 363.5 281C363.434 340.343 315.343 388.434 256 388.5C196.669 388.5 148.5 340.331 148.5 281C148.5 221.669 196.669 173.5 256 173.5ZM256 373.5C204.948 373.5 163.5 332.052 163.5 281C163.5 229.948 204.948 188.5 256 188.5C307.061 188.561 348.439 229.939 348.5 281C348.5 332.052 307.052 373.5 256 373.5Z" fill-rule="evenodd"  fill="#000000" >
    </path>
    <path d="M256 221C222.863 221 196 247.863 196 281C196 314.137 222.863 341 256 341C289.137 341 316 314.137 316 281C316 247.863 289.137 221 256 221Z"   fill="#D5F1FE" >
    </path>
    <path d="M217.836 293.788C207.492 273.992 209 250.089 221.75 231.75C202.021 245.439 192.354 269.572 197.177 293.095C201.999 316.618 220.382 335.001 243.905 339.823C267.428 344.646 291.561 334.979 305.25 315.25C295.207 322.264 283.249 326.017 271 326C248.664 325.995 228.181 313.583 217.836 293.788Z"   fill="#93DCFC" >
    </path>
    <path d="M256 213.5C293.254 213.5 323.5 243.746 323.5 281C323.456 318.261 293.261 348.456 256 348.5C218.746 348.5 188.5 318.254 188.5 281C188.5 243.746 218.746 213.5 256 213.5ZM256 333.5C227.024 333.5 203.5 309.976 203.5 281C203.5 252.024 227.024 228.5 256 228.5C284.981 228.533 308.467 252.019 308.5 281C308.5 309.976 284.976 333.5 256 333.5Z" fill-rule="evenodd"  fill="#000000" >
    </path>
    <path d="M231 301L281 301L281 261L231 261L231 301Z"   fill="#FFD508" >
    </path>
    <path d="M246 261L231 261L231 301L281 301L281 286L256 286C250.481 286 246 281.519 246 276L246 261Z"   fill="#FCB54C" >
    </path>
    <path d="M288.5 261L288.5 301C288.5 305.139 285.139 308.5 281 308.5L231 308.5C226.861 308.5 223.5 305.139 223.5 301L223.5 261C223.5 256.861 226.861 253.5 231 253.5L281 253.5C285.139 253.5 288.5 256.861 288.5 261ZM273.5 268.5L273.5 293.5L238.5 293.5L238.5 268.5L273.5 268.5Z" fill-rule="evenodd"  fill="#000000" >
    </path>
    <path     fill="#FFD508"  d="M37.5 191C37.5 202.046 46.4543 211 57.5 211L87.5 211C98.5457 211 107.5 202.046 107.5 191L107.5 181C107.5 169.954 98.5457 161 87.5 161L57.5 161C46.4543 161 37.5 169.954 37.5 181L37.5 191Z">
    </path>
    <path d="M37.5 181L37.5 191C37.5033 200.309 43.9293 208.385 53 210.48C52.6605 209.011 52.4927 207.508 52.5 206L52.5 196C52.5 184.962 61.4617 176 72.5 176L102.5 176C104.008 176.004 105.511 176.178 106.98 176.52C104.893 167.441 96.8153 161.005 87.5 161L57.5 161C46.4617 161 37.5 169.962 37.5 181Z"   fill="#FCB54C" >
    </path>
    <path d="M115 181L115 191C114.983 206.181 102.681 218.483 87.5 218.5L57.5 218.5C42.3213 218.478 30.022 206.179 30 191L30 181C30.022 165.821 42.3213 153.522 57.5 153.5L87.5 153.5C102.681 153.517 114.983 165.819 115 181ZM45 191L45 181C45.011 174.101 50.601 168.511 57.5 168.5L87.5 168.5C94.4013 168.506 99.9945 174.099 100 181L100 191C99.9945 197.901 94.4013 203.494 87.5 203.5L57.5 203.5C50.601 203.489 45.011 197.899 45 191Z" fill-rule="evenodd"  fill="#000000" >
    </path>
    <path d="M449.5 161C435.693 161 424.5 172.193 424.5 186C424.5 199.807 435.693 211 449.5 211C463.307 211 474.5 199.807 474.5 186C474.5 172.193 463.307 161 449.5 161Z"   fill="#FFFFFF" >
    </path>
    <path d="M444.039 185.354C439.36 178.684 438.226 170.151 441 162.49C430.085 166.428 423.313 177.359 424.65 188.886C425.986 200.412 435.078 209.504 446.605 210.841C458.131 212.177 469.062 205.406 473 194.49C470.275 195.481 467.399 195.992 464.5 196C456.352 195.998 448.717 192.025 444.039 185.354Z"   fill="#D5F1FE" >
    </path>
    <path d="M449.5 153.5C467.437 153.5 482 168.063 482 186C481.978 203.94 467.44 218.478 449.5 218.5C431.563 218.5 417 203.937 417 186C417 168.063 431.563 153.5 449.5 153.5ZM449.5 203.5C439.841 203.5 432 195.659 432 186C432 176.341 439.841 168.5 449.5 168.5C459.16 168.511 466.989 176.34 467 186C467 195.659 459.159 203.5 449.5 203.5Z" fill-rule="evenodd"  fill="#000000" >
    </path>
    <path d="M482 401C482 396.861 478.639 393.5 474.5 393.5L414.5 393.5C410.361 393.5 407 396.861 407 401C407 405.139 410.361 408.5 414.5 408.5L474.5 408.5C478.639 408.5 482 405.139 482 401Z"   fill="#000000" >
    </path>
</svg>

